<svg id="Capa_1" data-name="Capa 1" xmlns="http://www.w3.org/2000/svg" viewBox="0 0 1080 1080"><defs><style>.cls-1{opacity:0.05;}.cls-2{fill:#f1ebe0;}</style></defs><g class="cls-1"><path class="cls-2" d="M634.37,603.69c-7.48-.07-16.06-3.85-25.52-11.23a6.67,6.67,0,0,1-1.73-2.15H634.2a4.67,4.67,0,1,0,0-9.34H607.11a6.85,6.85,0,0,1,1.74-2.16c9.46-7.38,18-11.15,25.52-11.23a4.67,4.67,0,0,0,0-9.34h-.05c-9.57.1-20,4.54-31.16,13.2a16.84,16.84,0,0,0-5.94,9.53H545V528.8a16.85,16.85,0,0,0,9.52-5.93c8.66-11.11,13.1-21.6,13.2-31.16a4.67,4.67,0,0,0-4.62-4.72h0a4.67,4.67,0,0,0-4.67,4.62c-.07,7.47-3.85,16.06-11.23,25.52a6.92,6.92,0,0,1-2.15,1.73V491.78a4.67,4.67,0,1,0-9.34,0v27.09a7,7,0,0,1-2.17-1.74c-7.37-9.46-11.15-18.05-11.23-25.52a4.67,4.67,0,1,0-9.33.1c.09,9.56,4.54,20.05,13.2,31.16a16.89,16.89,0,0,0,9.53,5.94V581H483.51a16.88,16.88,0,0,0-5.93-9.53c-11.11-8.66-21.6-13.1-31.16-13.2a4.67,4.67,0,0,0-.1,9.34c7.47.08,16.06,3.85,25.52,11.23a6.82,6.82,0,0,1,1.73,2.16H446.46a4.67,4.67,0,1,0,0,9.34h27.11a6.7,6.7,0,0,1-1.74,2.15c-9.45,7.38-18,11.16-25.51,11.23a4.67,4.67,0,0,0,.05,9.34h.05c9.56-.1,20.05-4.54,31.15-13.2a16.82,16.82,0,0,0,5.94-9.52h52.17v52.15a17,17,0,0,0-9.53,5.94C517.49,659.52,513,670,513,679.56a4.67,4.67,0,0,0,4.62,4.72,4.62,4.62,0,0,0,4.71-4.62c.08-7.47,3.86-16,11.24-25.52a6.74,6.74,0,0,1,2.16-1.74v27.12a4.67,4.67,0,0,0,9.34,0V652.41a6.92,6.92,0,0,1,2.15,1.73c7.38,9.47,11.16,18.05,11.23,25.52a4.67,4.67,0,0,0,4.67,4.62h0a4.67,4.67,0,0,0,4.62-4.72c-.1-9.56-4.54-20-13.2-31.16a16.89,16.89,0,0,0-9.52-5.93V590.31h52.16a16.82,16.82,0,0,0,5.93,9.52c11.11,8.66,21.59,13.1,31.16,13.2h.05a4.67,4.67,0,0,0,0-9.34Z"/><path class="cls-2" d="M90.52,750.21a3.12,3.12,0,0,1-3.11,3.12H76.24a3.12,3.12,0,0,1,0-6.23H87.41A3.11,3.11,0,0,1,90.52,750.21ZM279.73,496.39a3.11,3.11,0,1,1,5-3.64c5.6,7.75,19.24,18.95,28.63,23.49a3.12,3.12,0,0,1-2.71,5.61C300.39,516.86,285.92,505,279.73,496.39ZM983.17,750.26a3.12,3.12,0,0,1-3.12,3.11H958.63a3.11,3.11,0,0,1,0-6.22h21.42A3.12,3.12,0,0,1,983.17,750.26Zm24.37,0a3.12,3.12,0,0,1-3.11,3.12H993.26a3.12,3.12,0,1,1,0-6.23h11.17A3.12,3.12,0,0,1,1007.54,750.21ZM270.26,505.64a3.11,3.11,0,0,1,5.61-2.7c4.31,8.93,13.81,20.18,22.1,26.17a3.12,3.12,0,0,1-1.83,5.64,3.16,3.16,0,0,1-1.82-.59C285.3,527.64,275,515.38,270.26,505.64Zm30.91-146.27a3.11,3.11,0,0,1,1.81-4l18-6.8a3.12,3.12,0,0,1,2.2,5.83l-5.44,2.05c-5.5,11.8-9.76,6.82-11.28,4.26l-1.27.48a3,3,0,0,1-1.1.2A3.1,3.1,0,0,1,301.17,359.37Zm-12.95,127a3.11,3.11,0,0,1,4.3-4.5c6.27,6,17.2,12.47,26.58,15.74a3.11,3.11,0,0,1-1,6.05,3.26,3.26,0,0,1-1-.17C306.93,500,295.07,492.92,288.22,486.37ZM945.47,747.1H837.59c2.12-6.68,1.92-16.73,1.91-16.86,0-.68-.07-1.47-.14-2.3s-.14-1.91-.15-2.83a13.32,13.32,0,0,1,3,1.66c2,1.31,4.94,3.3,7.72,1,3-2.58,2.55-8.17,1.64-15.78-.18-1.56-.36-3-.37-3.82-.2-12.82,5.69-23.08,10.89-32.13,4.55-7.91,8.47-14.74,6.46-21.16-1.11-3.56-4.47-6.6-8-9.82-4.59-4.14-9.32-8.42-8.62-13.07.52-3.42,2.29-6,4.54-9.34,3.54-5.22,7.66-11.33,8.12-22.51,9.57,9.18,19.94,14,30.19,14a32.46,32.46,0,0,0,8.17-1c14.41-3.68,26.09-17.31,29.75-34.75,4.92-23.46-5.07-47.57-26.71-64.5-1.44-1.12-3.06-2.91-2.67-5.12.37-2,2.39-4,5-4.81,1.88-.6,6.78-1.45,11.79,3.47,2.79,2.73,5.91,3.66,8.33,2.49,1-.5,3.33-2.11,2.84-6.6-5.72-34.94-24.14-44.44-34.61-47-16.19-4-35,3.29-45.69,17.63-10.11,13.55-10.88,29.95-2.11,45,8.67,14.87,22.84,24.17,35.33,32.37,18.28,12,28.31,19.5,22,34.42-2.82,6.62-9.82,6.81-12.71,6.59a23.75,23.75,0,0,1-20.67-17.93c-3.93-15.69-7.53-26.49-24.35-44.09-7.11-7.44-20.71-21.69-12-48,3-7.52,8.93-14.44,15.17-21.68,7.51-8.71,15.28-17.71,19.2-29,7.78-22.53,4.21-45.32-9.81-62.53-10.92-13.42-37.82-34.82-95.2-27.4a3.15,3.15,0,0,0-1.59,5.74c6.54,4.41,7,10.23,5.25,14.33-28.79,8.08-46.35,36.83-47.76,42.21-.94,3.6,4.77,17.11,6.08,19.42.74,1.29,2,2.51,9.77,3.29a77.43,77.43,0,0,0,7.78.46c6.25,0,7.35-1.25,7.79-1.75,3.17-3.62,10.9-5.34,14.37-4.69a131.41,131.41,0,0,0,14.34,2.07c-3.78,12.71-9.32,14.84-16.86,17.72-6.25,2.39-13.95,5.33-21.63,14.93-9.46-3.83-18.71-13.61-26.94-22.31-7-7.38-13-13.75-18.69-16.28-3.19-1.42-7-1.35-11.43-1.27-6.57.12-14.74.27-24.55-4.28a3.13,3.13,0,0,0-.89-.26c-6.21-.84-9.42,1.94-12,4.18-1.88,1.64-3.51,3.06-6.47,3.44-9.14,1.18-21,8.57-25.56,13.36a4.06,4.06,0,0,0-.64,4.59,11,11,0,0,0,1.47,2.3,167,167,0,0,0-154.57.06,10.52,10.52,0,0,0,1.52-2.36,4.06,4.06,0,0,0-.63-4.59c-4.51-4.79-16.42-12.18-25.56-13.36-3-.38-4.59-1.8-6.48-3.44-2.58-2.24-5.78-5-12-4.18a3,3,0,0,0-.89.26c-9.81,4.55-18,4.41-24.56,4.28-4.41-.08-8.23-.15-11.42,1.27-5.7,2.53-11.72,8.9-18.7,16.28-7.89,8.34-16.72,17.67-25.77,21.8-3.53-14-10.65-21-17-27.27-5.61-5.53-10.19-10-11.12-18.53a24.32,24.32,0,0,0,6.34.91c9.79,0,17.38-6.61,26.53-14.59l.61-.52c3.1-2.71,6.62-5.77,13.19-5.18,4.29.38,18.58-13.53,18.72-13.67,2.8-2.83,3.69-4.35,3.51-6a61.19,61.19,0,0,0-1.28-6.73,3.13,3.13,0,0,0-3.78-2.3l-27.91,6.88-2.64-3.62L368.8,344a3.1,3.1,0,0,0,.62-4.18c-1-1.53-1.87-3-2.6-4.28-1.56-2.74-2.68-4.71-4.9-5.08-19.18-3.12-44.09-4.49-67.28,12.47a20.1,20.1,0,0,1-9-5.86c-1.28-1.48-2.69-3.71-2.2-5.94a3.09,3.09,0,0,0-1.76-3.51,3,3,0,0,0-1.45-.23,2.79,2.79,0,0,0-.5,0c-20.39,2.39-39.32,15.22-51.95,35.21-13.86,21.95-18,48.65-10.89,69.67,2.76,8.14,7.31,17.11,12.12,26.6,8.61,17,17.52,34.59,15.61,46.75a3.31,3.31,0,0,0,0,.7c-1.47,10.53-6.55,17.77-12.42,23.91-16.82,17.6-20.42,28.4-24.36,44.09a23.73,23.73,0,0,1-20.67,17.93c-2.88.22-9.89,0-12.7-6.59-6.34-14.92,3.69-22.43,22-34.42,12.5-8.2,26.67-17.5,35.34-32.37,8.77-15,8-31.44-2.11-45C219,459.54,200.18,452.3,184,456.25c-10.46,2.56-28.88,12.06-34.62,47.17-.47,4.32,1.84,5.93,2.85,6.43,2.44,1.17,5.55.24,8.33-2.49,5-4.92,9.92-4.07,11.79-3.47,2.65.84,4.67,2.78,5,4.81.4,2.2-1.23,4-2.66,5.12C153,530.8,143,555,147.91,578.62c3.66,17.44,15.3,31.07,29.66,34.74a32.48,32.48,0,0,0,8.11,1c10.32,0,20.77-4.89,30.41-14.24.46,11.17,4.57,17.28,8.12,22.5,2.24,3.31,4,5.92,4.54,9.34.7,4.65-4,8.93-8.62,13.07-3.56,3.21-6.92,6.26-8,9.82-2,6.42,1.92,13.25,6.46,21.16,5.2,9.05,11.1,19.31,10.9,32.13,0,.78-.19,2.26-.38,3.82-.91,7.61-1.32,13.2,1.7,15.82,2.73,2.27,5.7.28,7.67-1a13.32,13.32,0,0,1,3-1.66c0,.92-.1,2.08-.16,2.83s-.12,1.62-.14,2.3c0,.13-.27,10.42,2,16.86H135.22a3.12,3.12,0,0,0,0,6.23H945.47a3.12,3.12,0,0,0,0-6.23Zm-95-295a86.44,86.44,0,0,0,4.48-15l6.4-.08A96.37,96.37,0,0,1,850.5,452.15Zm14.34-22.68c-.16.46-.37.9-.54,1.36l-8.36.1a64.33,64.33,0,0,0-.41-17.68l13-3.28A65.66,65.66,0,0,1,864.84,429.47Zm3.49-25.88-14.12,3.57a61.46,61.46,0,0,0-5.55-13.67,62.51,62.51,0,0,0-3.34-5.31l15.32-8.8A55.16,55.16,0,0,1,868.33,403.59ZM856.1,372.9c.35.43.67.89,1,1.33l-15.59,8.95a73.34,73.34,0,0,0-15.31-13.71L838.08,358A62.56,62.56,0,0,1,856.1,372.9ZM832.21,355l-11.5,11.11a73.41,73.41,0,0,0-16.81-6.84l6.71-10.89A93.22,93.22,0,0,1,832.21,355Zm-28.27-7.65L797.4,358c-1.48-.22-2.93-.37-4.35-.46a34.17,34.17,0,0,0-9.84-11.06A135.61,135.61,0,0,1,803.94,347.37ZM617.86,446,599.53,477.7a123.53,123.53,0,0,0-34.65-12.55l6.36-36.08A160,160,0,0,1,617.86,446ZM746.1,513.73c-2.56-.15-5-.48-7.58-.84-7.5-1.05-15.25-2.13-26,1.61-2.25.78-15.3,9.82-16.79,14.42-1.83,5.6,4.88,22.46,11.92,27.09l0,0c-.53.53-1.39,1.21-2,1.67-2.18,1.71-5.48,4.3-3.77,7.83,1.27,2.6,4.23,3.08,7.09,3.54,4.79.78,6.54,1.52,6.83,4.08,0,3.12-7.87,16.34-11.4,19.52-4.7-3.7-11.86-12.2-13.74-18.85-1.32-4.69-4.18-7-6.48-8.92s-3.65-3-3.75-6c3.41-10.77,1.9-20.37.79-27.42-.53-3.34-1.18-7.51-.42-8.48,4-5,12.23-15.36,16-25.23,2.11-2.43,18.24-8.11,34.67-10.7h0a70.37,70.37,0,0,0,13.54,5.22A35.29,35.29,0,0,0,746.1,513.73Zm19.75,128.2c1.13,2.57-.78,6.92-1.89,7.62-13.31,1.16-40.17,14.72-50.52,25.49a56.12,56.12,0,0,0-6.17,7.28,30.27,30.27,0,0,1-2,2.54c-.46-.49-1.06-1.22-1.51-1.76-2.4-2.9-6.87-8.3-11.54-4.47-1.66,1.36-2.21,3.29-2.69,5-.16.55-.32,1.12-.54,1.67-1.48,3.74-5.73,10.2-7.91,11.78-4.81-4.1-21.77-17.25-23.38-18.5a1.78,1.78,0,0,1-.66-1.1,1.66,1.66,0,0,1,.61-1c2-1.85,4.92-4.13,14.17-7.73,8.77-3.41,23.87-2,24-2a2.73,2.73,0,0,0,1-.07c8.38-1.91,45.14-30,45.5-30.26a3.13,3.13,0,0,0,1-3.54c-24.64-65.92,5.61-89.18,17.7-97.39,6.6,6.79,14.78,13.66,24,21A33.06,33.06,0,0,1,795.28,571c-11.88,5.54-23.46,18.31-29.19,32.42C760.7,616.67,760.62,630,765.85,641.93ZM285.27,571.14a32.92,32.92,0,0,1,10.36-14.64c10.23-8.23,19.21-15.82,26.16-23.36,5.88,5.44,11.94,17.48,12.37,30.71A40,40,0,0,1,320.33,596a3.1,3.1,0,0,0,.55,5c1.51.84,5.42,3.8,9.56,6.93,13.36,10.11,24,17.86,29.26,18.21a2.76,2.76,0,0,0,1-.09c.15,0,14.84-3.78,24-1.79,9.7,2.11,12.94,3.9,15.2,5.41.27.18.71.53.77.91a1.84,1.84,0,0,1-.48,1.19c-1.4,1.49-16.08,17.13-20.18,21.94-2.41-1.21-7.62-6.92-9.67-10.39-.3-.5-.54-1-.79-1.56-.75-1.61-1.59-3.44-3.45-4.52-5.21-3-8.77,3-10.69,6.23-.25.43-.57,1-.86,1.43a66.43,66.43,0,0,1-4.46-5.56c-2.55-3.43-4.95-6.67-7.3-8.23-11.16-8.38-28-9.73-40.3-10.72l-3.21-.26A5,5,0,0,1,297,618a2.35,2.35,0,0,1-.48-1.41C304.53,590,295.49,578.63,285.27,571.14Zm121.59,58.51a7.63,7.63,0,0,0-3.47-5.16c-2.74-1.83-6.57-4-17.35-6.32a30.13,30.13,0,0,0-3.56-.54,159.29,159.29,0,0,1-3.05-28.16h36.76a122.88,122.88,0,0,0,6.38,36.4l-15.73,5.73A7.49,7.49,0,0,0,406.86,629.65Zm-27.42-46.41a160,160,0,0,1,2.8-26.46c5.69,2,12.21,3.4,16.06,3.4a9.46,9.46,0,0,0,2-.19,4.09,4.09,0,0,0,3.33-3.22c.73-3.92.62-10.59-.55-17l19.61,7.14a122.63,122.63,0,0,0-6.49,36.36Zm21.74-50.82a27.57,27.57,0,0,0-1.83-4.18c-1.65-3-1.65-6.16-1.65-9.2a23.37,23.37,0,0,0-.47-5.69,160.6,160.6,0,0,1,18.11-27.77l28.12,23.59A123.68,123.68,0,0,0,424.86,541Zm18.19-51.58a161.81,161.81,0,0,1,38.06-31.79l18.33,31.75a125.14,125.14,0,0,0-28.28,23.62Zm-26.2,26.8c-5.49-4.44-10-11.4-13.73-17.08-3.41-5.26-6.1-9.41-9.06-11-.82-.45-1.52-.87-2.17-1.25a32.94,32.94,0,0,0-4.35-2.26,104.1,104.1,0,0,0,10.35-13.2c6.44-9.25,12-17.24,25.42-19.95,5.69-1.14,13.68-.37,17.79,4a6.27,6.27,0,0,0,5.21,2.34c3.07-.3,4.8-3.1,6.19-5.35l.26-.42c.09.27.18.53.25.76,1.09,3.33,3.06,9.27,9.48,10A167.92,167.92,0,0,0,393.17,507.64Zm-28.12-24c.69.41,1.45.86,2.32,1.34,1.6.88,4.27,5,6.85,9,4.2,6.47,9.43,14.53,16.18,19.45,1,.85,1.08,2.6,1.08,5.63,0,3.48,0,7.8,2.42,12.21,3.33,6.07,4.41,16.89,3.84,22.78-4.85-.1-19.05-4.44-21.08-6.63-1.67-2.18-1.05-3.8,1.68-7.6,1.64-2.28,3.33-4.63,2.38-7.36-1.24-3.61-5.26-3.3-7.93-3.1a22.78,22.78,0,0,1-2.59.1.77.77,0,0,1,0-.15c1.55-8.06-5.57-24.77-10.67-27.62-3.54-2-15.66,0-22.9,2.17a36.79,36.79,0,0,0-1.11-11.58c10.1-2.82,17.41-6.84,23.06-11.42A21.12,21.12,0,0,1,365.05,483.63Zm-8.46,23.52c2.53,1.88,8.62,15.25,7.52,21a6.2,6.2,0,0,0,1.19,5.59c2.05,2.3,5.33,2,8,1.85l.48,0-.46.66c-2.22,3.08-6.34,8.82-1.56,15a13.51,13.51,0,0,0,4.58,3.17,164.18,164.18,0,0,0-.23,63.14,89.52,89.52,0,0,0-16.36,2.37c-4.36-.9-18.58-11.66-25.52-16.91-2.65-2-5-3.77-6.85-5.12a45.94,45.94,0,0,0,13-34.19c-.49-15.17-7.46-28.77-14.53-35.23,4.59-5.71,7.89-11.48,9.59-17.55C339.62,508.7,353.8,506.43,356.59,507.15Zm44,133.35,24.14-8.78a123.69,123.69,0,0,0,18.53,32l-28.12,23.59a159.93,159.93,0,0,1-22.8-37.87C395,646.49,397.93,643.33,400.56,640.5Zm46.68,27.94a124.9,124.9,0,0,0,28.27,23.74L457.17,724a162,162,0,0,1-38-31.92Zm-24.89-81.87c0-64.86,52.92-117.64,118-117.64s118,52.78,118,117.64-52.93,117.64-118,117.64S422.35,651.44,422.35,586.57ZM658,626.08a122.93,122.93,0,0,0,6.44-36.45h28.29a52.56,52.56,0,0,0,8.09,8.13,159.24,159.24,0,0,1-8.28,40.89Zm32.39,18.41a160,160,0,0,1-7.23,15.87,46.93,46.93,0,0,0-13.63,2.57c-10.27,4-13.71,6.72-16.14,9a8.14,8.14,0,0,0-2.28,3.63l-13.87-11.63a123.87,123.87,0,0,0,18.62-32ZM664.47,583.4A123.07,123.07,0,0,0,658,547l18.13-6.6a42.14,42.14,0,0,1-1.75,17.1,3.45,3.45,0,0,0-.16,1c0,6.3,3.34,9.06,6,11.27,2,1.61,3.65,3,4.44,5.8a32.76,32.76,0,0,0,3.64,7.89ZM676,519.16c-2.47,3.1-1.76,7.61-.86,13.32l.24,1.56-19.49,7.1a123.55,123.55,0,0,0-18.61-31.92l28.13-23.6A160.48,160.48,0,0,1,682.2,511C679.83,514.3,677.54,517.18,676,519.16ZM633.25,668.64l28.11,23.59a161.85,161.85,0,0,1-38.13,31.87L604.9,692.35A124.93,124.93,0,0,0,633.25,668.64Zm103.44-35.76c-9.84,7.54-34.92,25.65-40.84,27.59-1-.08-3-.21-5.61-.26A165,165,0,0,0,707,598.45c5.08-3.25,15.6-20.39,15-25.93-.87-7.79-8.13-9-12-9.6l-.74-.12.27-.21c2.16-1.7,4.84-3.81,4.71-6.94-.08-1.87-1.15-3.5-3.18-4.84-5.28-3.47-10-17.3-9.46-19.88,1.06-2.23,11-9.73,12.95-10.55,9.36-3.25,16-2.32,23.11-1.33A76.29,76.29,0,0,0,749,520a65.78,65.78,0,0,0,7.76,10.82C726.3,552.52,719.71,585.93,736.69,632.88ZM691.06,495.44a57.7,57.7,0,0,1-4.93,9.67,168,168,0,0,0-44.27-50.84c6.38-.8,8.33-6.72,9.41-10,.08-.23.16-.49.25-.75.1.14.18.28.26.41,1.4,2.25,3.13,5.05,6.2,5.35a6.26,6.26,0,0,0,5.21-2.34c4.11-4.41,12.1-5.18,17.79-4,13.42,2.71,19,10.71,25.42,20,4.52,6.49,9.4,13.48,17.34,19.4C712.39,484.63,693.21,489.68,691.06,495.44Zm-29.73-14.56-28.1,23.59a125.2,125.2,0,0,0-28.31-23.66l18.34-31.75A162,162,0,0,1,661.33,480.88Zm-121-54.81a162.18,162.18,0,0,1,24.79,1.9l-6.37,36.11a124.45,124.45,0,0,0-36.83,0L515.55,428A162,162,0,0,1,540.33,426.07Zm-30.9,3,6.36,36.08a123.38,123.38,0,0,0-34.63,12.54L462.83,446A159.55,159.55,0,0,1,509.43,429.07ZM274.5,334.64c-3.9,9.09-2.06,17.88,1.36,25a38.63,38.63,0,0,0-9.48,4.66l-15.17-18.47A61.27,61.27,0,0,1,274.5,334.64Zm-41.42,31.28a78.91,78.91,0,0,1,13.38-16.08L261.37,368a79.45,79.45,0,0,0-12.86,13.72L231.1,369.25C231.74,368.13,232.39,367,233.08,365.92ZM223,430.78l7.51,1a80,80,0,0,0,1.77,19.72A181.82,181.82,0,0,1,223,430.78Zm8-5.23-9.8-1.29A67.07,67.07,0,0,1,220,404.59l14.28,5.29A86.14,86.14,0,0,0,231,425.55Zm-10.26-27.32a85.63,85.63,0,0,1,7.46-23.41l16.78,12c-1.08,1.69-2.14,3.42-3.14,5.21A92.77,92.77,0,0,0,236.27,404Zm58.81,348.65c-2.09-.07-24.44-.71-30.09-.55-1.39-2.07-2.27-10.81-2.12-15.91,0-.59.08-1.28.13-2,.29-3.77.62-8-2.8-9.24-4-1.37-7.41.91-9.67,2.42l-.32.21a59,59,0,0,1,.59-9.09c.22-1.8.41-3.35.42-4.46.23-14.53-6.4-26.06-11.72-35.32-3.81-6.65-7.11-12.38-5.92-16.2.61-2,3.49-4.55,6.28-7.06,5.25-4.76,11.8-10.67,10.59-18.62-.73-4.82-3.18-8.42-5.54-11.9-4.79-7.06-10.21-15-4.91-37.49a3.11,3.11,0,1,0-6-1.43,91.14,91.14,0,0,0-1.86,10.37,1.29,1.29,0,0,0-.17.16c-11.8,13.81-25,19.69-37.26,16.57-12.08-3.09-21.93-14.86-25.11-30-4.45-21.22,4.72-43.13,24.52-58.61,5.31-4.15,5.39-8.75,5-11.12-.79-4.38-4.34-8.08-9.27-9.65-6.14-2-12.89-.1-18,5a6.61,6.61,0,0,1-.51.46c3.93-22.77,14.49-37.35,29.79-41.08,13.85-3.38,30,2.91,39.23,15.3,8.55,11.45,9.17,25.35,1.72,38.14C218.47,529.34,205,538.21,193,546c-16.95,11.12-33,21.63-24.28,42.07,3.05,7.17,10.12,11,18.92,10.35a30,30,0,0,0,26.22-22.61c3.69-14.71,7.06-24.82,22.82-41.31,12.22-12.79,22.48-31.19,6-70.7-12.56-30.07-2.53-56,4.58-68.76,9.45-17,22.78-27.61,31.76-29.87a58.44,58.44,0,0,0,6,7.66,3.11,3.11,0,1,0,4.56-4.24c-5.8-6.24-13.82-17.54-10.14-29.46a19.76,19.76,0,0,0,1.48,2c4,4.66,10.8,8.36,14.82,8.1a3.1,3.1,0,0,0,1.66-.62c21.18-16,43.53-15.18,62.71-12.13.34.51.84,1.39,1.26,2.13s.83,1.46,1.33,2.28l-25.27,20.3a3.1,3.1,0,0,0-.56,4.26l5.62,7.71a3.11,3.11,0,0,0,3.26,1.18l26.85-6.61c.15.78.28,1.49.37,2.07-2.26,3-13.1,12-16,13.57-8.85-.6-13.86,3.81-17.21,6.74l-.6.52c-15,13.11-21.91,19.09-40.8,5.09a3.11,3.11,0,1,0-3.71,5,61.37,61.37,0,0,0,9.35,5.84c.28,12.7,6.52,18.89,13.13,25.4S330.42,445,333.2,459.58a3.1,3.1,0,0,0,4,2.38c11.71-3.64,22.29-14.83,31.62-24.69,6.25-6.61,12.15-12.85,16.7-14.87,1.94-.86,5.11-.8,8.79-.74,6.73.13,15.92.29,26.83-4.65,3.11-.31,4.46.87,6.64,2.77s4.93,4.29,9.76,4.91c6.86.89,16.24,6.4,20.67,10.33-2.95,3.86-14.83,12.77-17.79,13.11-2.71.08-3.69-1.39-5.15-5.83-.87-2.67-1.78-5.42-4.54-6.27-3.65-1.12-5.77,2.32-7.18,4.59a22.25,22.25,0,0,1-1.45,2.14l-.11-.11c-6.17-6.61-16.55-7.31-23.57-5.89-15.87,3.21-22.4,12.57-29.3,22.49-7.34,10.54-15,21.42-35.47,27.07a66.46,66.46,0,0,0-4.45-9,3.11,3.11,0,1,0-5.37,3.15c16.29,27.8,2,43.77-32.08,71.21-15.9,12.8-16.12,32.64-16.29,48.58a114.61,114.61,0,0,1-.65,13.77c-2,14.11-6.45,28.41-39.43,48.11a3.11,3.11,0,0,0,1.6,5.79,3.08,3.08,0,0,0,1.59-.44c1.07-.64,2.11-1.28,3.13-1.91.5,10.79,4.93,29.79,11.61,49a3.22,3.22,0,0,0,1.21,1.56c7.82,5.26,13.63,10.3,16.79,14.58,6.45,8.73,7.91,12.39,8.78,15.12a3.61,3.61,0,0,1,.17.91A1.44,1.44,0,0,1,279.53,746.88Zm6.87.22a8.54,8.54,0,0,0-.39-3.18c-1-3.21-2.7-7.44-9.71-16.94-3.51-4.75-9.38-10-17.47-15.46-8-23.17-11.72-43.26-10.86-50,24.09-16.34,30.71-30.22,33-46.61a119.17,119.17,0,0,0,.72-14.56c.08-7.42.18-15.3,1.76-22.71,8.93,7.28,13.22,17,7.08,37.24a8.1,8.1,0,0,0,1.4,6.88c1.34,2,3.94,4.36,6.86,4.61l3.25.27c11.57.93,27.42,2.2,37.14,9.54a1.33,1.33,0,0,0,.19.14c1.42.91,3.84,4.16,5.78,6.77,4.17,5.61,7.46,10,11.42,8.45,1.8-.71,2.88-2.54,4.25-4.86a25.19,25.19,0,0,1,2.45-3.64c.23.39.49,1,.69,1.38a22.24,22.24,0,0,0,1.08,2.12c1,1.72,9.16,13.22,15.13,13.63l.38,0a4.65,4.65,0,0,0,3.72-1.77c.57-.71,1.82-2.12,3.44-3.92a167,167,0,0,0,13,23.74l-38,68.91Zm83.47,0,34.82-63.21A168.12,168.12,0,0,0,436.32,717l-29,30.13Zm46.09,0,25.32-26.31a166.72,166.72,0,0,0,54,26.31Zm46.61-20.05L480.9,695.3A123.09,123.09,0,0,0,515.58,708L509.22,744A160.07,160.07,0,0,1,462.57,727.05Zm77.76,20a162,162,0,0,1-25-1.94l6.36-36.1a124.16,124.16,0,0,0,36.92,0L565,745.19A161.78,161.78,0,0,1,540.33,747.08ZM564.77,708a123.81,123.81,0,0,0,34.74-12.56l18.33,31.74a160,160,0,0,1-46.71,16.9ZM585.4,747.1a166.71,166.71,0,0,0,53.9-26.24l25.25,26.24Zm87.79,0L644.26,717a168.07,168.07,0,0,0,23.47-22.72c4.61,3.64,8.64,6.86,9.92,8a4.6,4.6,0,0,0,3.15,1.22,5.4,5.4,0,0,0,1.18-.13,8.65,8.65,0,0,0,3.5-2l25.16,45.67Zm120.85,0H717.75l-27.94-50.7a55.34,55.34,0,0,0,5-8.8c.29-.74.52-1.52.73-2.27.13-.45.31-1.06.46-1.47a24,24,0,0,1,3,3.21c1.72,2.07,3.08,3.71,5,4.14,3.87.88,6.05-2.07,8.35-5.19a50.34,50.34,0,0,1,5.57-6.6c9.32-9.69,35.12-22.75,46.79-23.68,2.11-.17,4.09-1.64,5.58-4.13,1.92-3.2,3.07-8.21,1.33-12.18-5.74-13.09-3-25.54.31-33.67,5.75-14.16,16.4-24.29,25.2-28.72,1.7,7.57,1.8,15.66,1.88,23.26a121.32,121.32,0,0,0,.71,14.56c2.27,16.38,8.89,30.25,32.93,46.58,1,6.51-2.76,26.72-10.81,50.08-8.08,5.51-13.95,10.71-17.46,15.46-6.67,9-8.73,13.91-9.87,17.5A8,8,0,0,0,794,747.1Zm39.12-18.69c.05.73.11,1.42.12,2,.14,4.64-.76,14.48-2.35,16.65L801.27,747h0a3.39,3.39,0,0,1-1-.16,4.73,4.73,0,0,1,.11-.48c1-3.1,2.82-7.38,8.94-15.68,3.17-4.28,9-9.32,16.8-14.58a3.14,3.14,0,0,0,1.2-1.56c6.71-19.26,11.13-38.3,11.59-49,1,.64,2.08,1.28,3.16,1.93a3.08,3.08,0,0,0,1.59.44,3.11,3.11,0,0,0,1.6-5.79c-33-19.7-37.47-34-39.43-48.11a114.61,114.61,0,0,1-.65-13.77c-.18-15.94-.39-35.78-16.29-48.58-34.09-27.44-48.37-43.41-32.08-71.21a3.11,3.11,0,1,0-5.37-3.15,66.07,66.07,0,0,0-4.47,9.09c-20.48-5.65-28.1-16.54-35.45-27.1-6.9-9.93-13.43-19.31-29.3-22.52-7-1.42-17.41-.72-23.57,5.89l-.11.11a20.56,20.56,0,0,1-1.45-2.14c-1.41-2.27-3.52-5.7-7.18-4.59-2.77.85-3.67,3.6-4.54,6.27-1.46,4.44-2.36,5.95-5.11,5.84-3-.35-14.89-9.26-17.83-13.11,4.43-3.94,13.81-9.45,20.67-10.34,4.82-.62,7.56-3,9.76-4.91s3.52-3.08,6.63-2.77c10.91,4.94,20.1,4.78,26.84,4.65,3.67-.07,6.85-.12,8.78.74,4.56,2,10.46,8.26,16.7,14.87,9.34,9.86,19.92,21.05,31.63,24.69a3.09,3.09,0,0,0,3.43-1.13c7-9.61,13.76-12.17,20.25-14.64,8.47-3.24,16.47-6.32,21.08-23.47,9.47-.55,16.86-4.52,21.87-15.84a3.11,3.11,0,0,0-5.69-2.52c-6.19,14-16.14,13.79-35.82,10.1-5-.93-14.6,1-19.67,6.14-2.91.52-13.27-.18-16.12-1.08-1.78-3.53-4.84-12.18-5-14.34,1.62-4.83,18.63-31.29,44.59-37.88a3.1,3.1,0,0,0,2-1.49,16.81,16.81,0,0,0-.12-17c11.64,3.7,16.55,16.38,18.55,24.55a3.11,3.11,0,1,0,6-1.47,57.88,57.88,0,0,0-2.51-7.86c16.26,2.24,36.48,13.45,47,32.44,7.46,13.48,12.63,36-5.13,67a91.8,91.8,0,0,0-7.71,16.89,34,34,0,0,0-1.65,5.87c-5.23,22.56,4.77,37.4,15.17,48.29C859.65,551,863,561.14,866.71,575.84a30,30,0,0,0,26.23,22.61c8.78.7,15.87-3.18,18.92-10.35,8.68-20.44-7.33-31-24.28-42.07-11.92-7.82-25.44-16.69-33.37-30.29-7.46-12.79-6.83-26.69,1.72-38.14,9.25-12.39,25.38-18.68,39.23-15.3,15.33,3.74,25.91,18.38,29.79,41.09l-.52-.47c-5.14-5.06-11.89-6.92-18-5-4.94,1.57-8.49,5.27-9.27,9.65-.43,2.37-.35,7,5,11.12C921.82,534.15,931,556,926.53,577.05c-3.17,15.12-13.06,26.9-25.19,30s-25.48-2.7-37.27-16.42a91.82,91.82,0,0,0-1.86-10.39,3.11,3.11,0,0,0-6.06,1.43c5.31,22.44-.12,30.43-4.9,37.49-2.37,3.48-4.81,7.08-5.54,11.9-1.21,8,5.33,13.86,10.59,18.62,2.79,2.51,5.66,5.12,6.27,7.06,1.2,3.82-2.1,9.55-5.91,16.2-5.33,9.26-11.95,20.79-11.73,35.32,0,1.11.21,2.67.42,4.47a58.85,58.85,0,0,1,.6,9.08l-.32-.21c-2.27-1.51-5.69-3.8-9.68-2.42C832.54,720.36,832.87,724.64,833.16,728.41Zm-41-242c-6.85,6.55-18.71,13.59-28.84,17.12a3.35,3.35,0,0,1-1,.17,3.11,3.11,0,0,1-1-6.05c9.38-3.27,20.31-9.74,26.58-15.74a3.12,3.12,0,1,1,4.31,4.5Zm-667,263.89a3.12,3.12,0,0,1-3.12,3.11H100.61a3.11,3.11,0,1,1,0-6.22H122A3.12,3.12,0,0,1,125.15,750.26ZM778.49,377.84a3.1,3.1,0,0,1-.62,4.36l-1.08.81c1.36,2.65,3.32,8.94-9.69,7.27l-4.87,3.65a3.1,3.1,0,0,1-4.35-.63,3.11,3.11,0,0,1,.62-4.35l15.64-11.73A3.11,3.11,0,0,1,778.49,377.84Zm31.64,127.8c-4.7,9.74-15,22-24.07,28.52a3.16,3.16,0,0,1-1.82.59,3.12,3.12,0,0,1-1.82-5.64c8.29-6,17.79-17.24,22.1-26.17a3.11,3.11,0,0,1,5.61,2.7ZM164.28,572.29a3.11,3.11,0,0,1-2.95,3.27h-.16a3.12,3.12,0,0,1-3.11-2.95c-.95-18.41,6.37-32.08,27-50.44,13.25-11.79,13-21.15,11.71-25.69a14.87,14.87,0,0,0-11.89-10.37c-6-1-11.72,1.68-15.66,7.33a3.11,3.11,0,0,1-5.24-3.36c8.27-14.05,21.3-21.09,34.84-18.83,11.77,2,21.2,10.73,23.45,21.81,2.94,14.41-6.26,29.61-25.22,41.7a3.11,3.11,0,1,1-3.34-5.25c16.67-10.63,24.86-23.46,22.46-35.2-1.74-8.58-9.13-15.38-18.37-16.92a23.71,23.71,0,0,0-14.88,2.3,21.57,21.57,0,0,1,3,.27,21.13,21.13,0,0,1,16.85,14.79c1.72,5.94,2.25,18-13.55,32.07C170.19,543.73,163.44,556.06,164.28,572.29Zm726.27-45.47c-15.8-14.06-15.27-26.13-13.55-32.07A21.13,21.13,0,0,1,893.85,480a21.57,21.57,0,0,1,3-.27,23.69,23.69,0,0,0-14.87-2.3c-9.25,1.54-16.63,8.34-18.38,16.92-2.39,11.74,5.8,24.57,22.47,35.2a3.11,3.11,0,0,1-3.35,5.25c-19-12.09-28.15-27.29-25.22-41.7,2.26-11.08,11.69-19.84,23.46-21.81,13.56-2.26,26.56,4.78,34.83,18.83a3.11,3.11,0,0,1-5.23,3.36c-3.94-5.65-9.66-8.32-15.67-7.33A14.84,14.84,0,0,0,883,496.48c-1.31,4.54-1.54,13.9,11.71,25.69,20.63,18.36,27.95,32,27,50.44a3.12,3.12,0,0,1-3.11,2.95h-.16a3.11,3.11,0,0,1-2.95-3.27C916.31,556.06,909.55,543.74,890.55,526.82Zm-120.87-5a3.12,3.12,0,0,1-2.71-5.61c9.4-4.54,23-15.74,28.63-23.49a3.11,3.11,0,1,1,5,3.64C794.47,505,780,516.86,769.68,521.85Z"/></g></svg>