<svg xmlns="http://www.w3.org/2000/svg" id="Capa_1" data-name="Capa 1" viewBox="0 0 153 77"><defs><style>.cls-2{fill:#c2aa77}</style></defs><ellipse cx="77" cy="45.1" rx="18.55" ry="18.61" style="fill:none;stroke:#c2aa77;stroke-miterlimit:10"/><path d="M91.45 47.73A6.75 6.75 0 0 1 87.53 46a1.09 1.09 0 0 1-.27-.33h4.16a.72.72 0 0 0 .17-1.43.49.49 0 0 0-.17 0h-4.16a1.09 1.09 0 0 1 .27-.33 6.75 6.75 0 0 1 3.92-1.73.72.72 0 0 0 0-1.43 8.14 8.14 0 0 0-4.78 2 2.64 2.64 0 0 0-.92 1.47h-8v-8a2.6 2.6 0 0 0 1.46-.91 8.19 8.19 0 0 0 2-4.79.71.71 0 0 0-.7-.72.71.71 0 0 0-.71.71 6.9 6.9 0 0 1-1.73 3.92.93.93 0 0 1-.33.26v-4.16a.72.72 0 0 0-1.43 0v4.17a1.13 1.13 0 0 1-.34-.27 6.83 6.83 0 0 1-1.72-3.92.72.72 0 1 0-1.44 0 8.19 8.19 0 0 0 2 4.79 2.57 2.57 0 0 0 1.47.91v8h-8a2.62 2.62 0 0 0-.91-1.47 8.19 8.19 0 0 0-4.79-2 .72.72 0 1 0-.17 1.43h.17a6.84 6.84 0 0 1 3.92 1.73.93.93 0 0 1 .26.33h-4.18a.72.72 0 0 0-.17 1.43.49.49 0 0 0 .17 0h4.16a.93.93 0 0 1-.26.33 6.84 6.84 0 0 1-3.92 1.73.72.72 0 0 0 0 1.43 8.1 8.1 0 0 0 4.79-2 2.6 2.6 0 0 0 .91-1.46h8v8a2.62 2.62 0 0 0-1.47.91 8.19 8.19 0 0 0-2 4.79.72.72 0 0 0 1.44 0A6.77 6.77 0 0 1 76 55.48a1.13 1.13 0 0 1 .34-.27v4.17a.72.72 0 1 0 1.43.17.49.49 0 0 0 0-.17v-4.17a1.09 1.09 0 0 1 .33.27 6.9 6.9 0 0 1 1.73 3.92.71.71 0 0 0 .71.71.71.71 0 0 0 .71-.71 8.19 8.19 0 0 0-2-4.79 2.6 2.6 0 0 0-1.46-.91v-8h8a2.56 2.56 0 0 0 .92 1.46 8 8 0 0 0 4.78 2 .72.72 0 0 0 0-1.43Z" class="cls-2"/><path d="M7.89 70.24a.47.47 0 0 1-.48.48H5.69a.47.47 0 0 1-.47-.47.48.48 0 0 1 .47-.48h1.72a.5.5 0 0 1 .48.47Zm29.11-39a.48.48 0 0 1 .11-.67.49.49 0 0 1 .67.11 14.44 14.44 0 0 0 4.39 3.61.49.49 0 0 1 .23.64.51.51 0 0 1-.43.27.38.38 0 0 1-.21 0A15.28 15.28 0 0 1 37 31.24Zm108.08 39a.47.47 0 0 1-.48.48h-3.29a.5.5 0 0 1-.48-.48.47.47 0 0 1 .48-.48h3.29a.48.48 0 0 1 .4.49Zm3.74 0a.47.47 0 0 1-.46.48h-1.73a.47.47 0 0 1-.48-.48.5.5 0 0 1 .48-.48h1.72a.48.48 0 0 1 .43.48ZM35.5 32.66a.48.48 0 0 1 .87-.41 12.33 12.33 0 0 0 3.39 4 .48.48 0 1 1-.56.77 13.52 13.52 0 0 1-3.7-4.36Zm4.75-22.47a.48.48 0 0 1 .28-.62l2.77-1a.47.47 0 1 1 .33.89l-.83.32c-.85 1.81-1.5 1-1.73.65l-.2.08h-.17a.5.5 0 0 1-.45-.32Zm-2 19.51a.48.48 0 0 1 .66-.69A12.65 12.65 0 0 0 43 31.43a.48.48 0 0 1-.16.93h-.16a13.66 13.66 0 0 1-4.42-2.66Zm101 40.06h-16.58a9.46 9.46 0 0 0 .3-2.59v-.79a2.59 2.59 0 0 1 .46.26c.3.2.75.51 1.18.15s.39-1.25.25-2.42v-.59a9.43 9.43 0 0 1 1.67-4.94c.7-1.21 1.3-2.26 1-3.25a3.93 3.93 0 0 0-1.23-1.51c-.71-.63-1.43-1.29-1.32-2a3.38 3.38 0 0 1 .69-1.44 5.94 5.94 0 0 0 1.25-3.46 6.79 6.79 0 0 0 4.64 2.15 4.82 4.82 0 0 0 1.25-.16 6.72 6.72 0 0 0 4.57-5.34c.76-3.6-.77-7.31-4.1-9.91a.87.87 0 0 1-.41-.79 1.1 1.1 0 0 1 .77-.74 1.76 1.76 0 0 1 1.82.54 1.14 1.14 0 0 0 1.28.38.9.9 0 0 0 .43-1c-.88-5.37-3.71-6.83-5.32-7.23a7 7 0 0 0-7 2.71 6 6 0 0 0-.32 6.92c1.33 2.28 3.51 3.71 5.43 5 2.81 1.84 4.35 3 3.37 5.29a1.87 1.87 0 0 1-1.95 1 3.66 3.66 0 0 1-3.17-2.75 12.62 12.62 0 0 0-3.75-6.78 6.66 6.66 0 0 1-1.85-7.38 12.64 12.64 0 0 1 2.33-3.33 14 14 0 0 0 3-4.46 9.83 9.83 0 0 0-1.5-9.61c-1.68-2.06-5.81-5.35-14.63-4.21h-.12a.47.47 0 0 0-.32.32.5.5 0 0 0 .2.53 1.74 1.74 0 0 1 .8 2.2 12.59 12.59 0 0 0-7.52 6.47 8.54 8.54 0 0 0 .94 3c.11.2.31.38 1.5.5.49 0 .89.07 1.19.07 1 0 1.13-.19 1.2-.26a2.92 2.92 0 0 1 2.21-.73 20.45 20.45 0 0 0 2.2.32 3.43 3.43 0 0 1-2.59 2.72 6.91 6.91 0 0 0-3.32 2.3A14.09 14.09 0 0 1 104 21.5a11.24 11.24 0 0 0-2.87-2.5 4.22 4.22 0 0 0-1.76-.2 7.75 7.75 0 0 1-3.77-.65h-.14a2.08 2.08 0 0 0-1.84.64 1.78 1.78 0 0 1-1 .53 8.07 8.07 0 0 0-3.93 2 .62.62 0 0 0-.1.71 1.41 1.41 0 0 0 .23.35 25.63 25.63 0 0 0-23.75 0 1.69 1.69 0 0 0 .23-.38.62.62 0 0 0-.1-.71 8 8 0 0 0-3.92-2 1.78 1.78 0 0 1-1-.53 2.08 2.08 0 0 0-1.84-.64.33.33 0 0 0-.14 0 7.75 7.75 0 0 1-3.77.65 4.22 4.22 0 0 0-1.76.2A11.23 11.23 0 0 0 50 21.5a14.64 14.64 0 0 1-4 3.35 8.23 8.23 0 0 0-2.61-4.19 4.44 4.44 0 0 1-1.71-2.85 3.36 3.36 0 0 0 1 .14c1.51 0 2.67-1 4.08-2.24l.09-.08a2.51 2.51 0 0 1 2-.79c.66 0 2.86-2.08 2.88-2.1.43-.44.56-.67.54-.93a6.48 6.48 0 0 0-.2-1 .47.47 0 0 0-.56-.35l-4.29 1-.41-.55 3.86-3.1a.48.48 0 0 0 .1-.65c-.16-.23-.29-.46-.4-.65-.24-.42-.41-.73-.75-.78-3-.48-6.78-.69-10.34 1.91a3.1 3.1 0 0 1-1.38-.9 1.14 1.14 0 0 1-.33-.91.47.47 0 0 0-.27-.54H37a11.13 11.13 0 0 0-8 5.41 12.9 12.9 0 0 0-1.67 10.7 34.2 34.2 0 0 0 1.86 4.09c1.33 2.61 2.69 5.31 2.4 7.18a.21.21 0 0 0 0 .11 6.48 6.48 0 0 1-1.91 3.67 12.54 12.54 0 0 0-3.74 6.78 3.65 3.65 0 0 1-3.2 2.77 1.86 1.86 0 0 1-2-1c-1-2.3.56-3.45 3.37-5.29 1.92-1.26 4.1-2.69 5.43-5a6 6 0 0 0-.32-6.92 7 7 0 0 0-7-2.71c-1.61.4-4.44 1.86-5.32 7.25a.87.87 0 0 0 .44 1 1.16 1.16 0 0 0 1.28-.33 1.75 1.75 0 0 1 1.81-.54 1.1 1.1 0 0 1 .77.74.87.87 0 0 1-.41.79c-3.34 2.61-4.87 6.33-4.11 10a6.7 6.7 0 0 0 4.55 5.33 4.82 4.82 0 0 0 1.25.16 6.84 6.84 0 0 0 4.67-2.19 5.94 5.94 0 0 0 1.25 3.41 3.52 3.52 0 0 1 .7 1.44c.1.71-.62 1.37-1.33 2a3.93 3.93 0 0 0-1.23 1.51c-.31 1 .29 2 1 3.25a9.43 9.43 0 0 1 1.67 4.94v.59c-.14 1.17-.21 2 .26 2.43s.87 0 1.17-.16a2.59 2.59 0 0 1 .46-.26v.79a9.05 9.05 0 0 0 .31 2.59H14.76a.47.47 0 0 0-.48.48.47.47 0 0 0 .46.48h124.51a.47.47 0 0 0 .48-.48.49.49 0 0 0-.44-.54Zm-14.59-45.31a12.48 12.48 0 0 0 .68-2.31h1a15.84 15.84 0 0 1-1.68 2.31Zm2.2-3.49a1.8 1.8 0 0 0-.08.21h-1.29a10.32 10.32 0 0 0-.06-2.72l2-.51a10 10 0 0 1-.57 3.06Zm.54-4-2.17.55a9.37 9.37 0 0 0-.86-2.1 6.87 6.87 0 0 0-.51-.81l2.35-1.36A8.61 8.61 0 0 1 127.4 17Zm-1.88-4.71.15.2-2.39 1.38a11.55 11.55 0 0 0-2.36-2.11l1.83-1.72a9.65 9.65 0 0 1 2.77 2.27Zm-3.67-2.75-1.77 1.71a11 11 0 0 0-2.58-1l1-1.68a15 15 0 0 1 3.35 1Zm-4.35-1.17-1 1.62-.67-.07a5.35 5.35 0 0 0-1.51-1.7 19.88 19.88 0 0 1 3.18.17ZM88.91 23.49l-2.81 4.88a19.45 19.45 0 0 0-5.33-1.93l1-5.54a24.56 24.56 0 0 1 7.14 2.59Zm19.71 10.42a9.1 9.1 0 0 1-1.17-.13 7.77 7.77 0 0 0-4 .24c-.34.12-2.35 1.51-2.58 2.22s.75 3.45 1.83 4.16l-.31.25c-.33.27-.84.66-.57 1.2s.64.48 1.08.55c.74.12 1 .23 1 .63a8.71 8.71 0 0 1-1.75 3 7.07 7.07 0 0 1-2.11-2.9 2.56 2.56 0 0 0-1-1.37c-.35-.28-.56-.46-.58-.92a8.82 8.82 0 0 0 .12-4.21c-.08-.52-.18-1.16-.06-1.3a16.05 16.05 0 0 0 2.48-3.87 15.37 15.37 0 0 1 5.33-1.64 11.2 11.2 0 0 0 2.08.81 5.49 5.49 0 0 0 .21 3.28Zm3 19.69a1.26 1.26 0 0 1-.29 1.17 17 17 0 0 0-7.76 3.92 8.4 8.4 0 0 0-.95 1.12c-.1.14-.23.3-.31.39-.07-.07-.16-.19-.23-.27-.37-.45-1.06-1.28-1.77-.69a1.47 1.47 0 0 0-.42.77 2.58 2.58 0 0 1-.08.26 5.84 5.84 0 0 1-1.22 1.81c-.73-.63-3.34-2.65-3.59-2.85a.18.18 0 0 1 0-.32 6.23 6.23 0 0 1 2.17-1.19 10.43 10.43 0 0 1 3.69-.31.43.43 0 0 0 .16 0c1.28-.29 6.93-4.61 7-4.65a.49.49 0 0 0 .15-.54c-3.79-10.13.86-13.7 2.72-15a40.3 40.3 0 0 0 3.68 3.23 5 5 0 0 1 1.58 2.22 9.77 9.77 0 0 0-4.48 5 7.45 7.45 0 0 0 0 5.93ZM37.81 42.73a5.05 5.05 0 0 1 1.59-2.25 37.82 37.82 0 0 0 4-3.59 7.13 7.13 0 0 1 1.9 4.72 6.12 6.12 0 0 1-2.12 4.93.43.43 0 0 0-.18.46.5.5 0 0 0 .24.36c.23.13.83.59 1.47 1.07 2 1.55 3.69 2.74 4.5 2.8a.38.38 0 0 0 .15 0 10.41 10.41 0 0 1 3.69-.23 6.31 6.31 0 0 1 2.34.83s.11.08.12.14a.25.25 0 0 1-.08.18c-.21.23-2.47 2.63-3.1 3.37a5.61 5.61 0 0 1-1.48-1.59c0-.08-.09-.16-.13-.24a1.37 1.37 0 0 0-.53-.7c-.8-.46-1.34.46-1.64 1l-.13.22c-.24-.27-.47-.56-.69-.86a5.85 5.85 0 0 0-1.12-1.26c-1.71-1.29-4.3-1.5-6.19-1.65h-.49a.69.69 0 0 1-.37-.32c-.07-.11-.08-.19-.07-.21 1.28-4.28-.11-6.03-1.68-7.18Zm18.68 9a1.17 1.17 0 0 0-.53-.8 7.09 7.09 0 0 0-2.67-1 5 5 0 0 0-.54-.08 23.42 23.42 0 0 1-.47-4.33h5.65a18.38 18.38 0 0 0 1 5.6l-2.42.88a.88.88 0 0 0 0-.28Zm-4.21-7.13a24.12 24.12 0 0 1 .43-4.07 9.07 9.07 0 0 0 2.47.52 1.61 1.61 0 0 0 .31 0 .62.62 0 0 0 .51-.49 8.23 8.23 0 0 0-.09-2.62l3 1.1a19 19 0 0 0-1 5.59Zm3.34-7.81a3.65 3.65 0 0 0-.28-.64 2.77 2.77 0 0 1-.25-1.42 3.66 3.66 0 0 0-.08-.87 25.42 25.42 0 0 1 2.78-4.27l4.33 3.63a18.46 18.46 0 0 0-2.86 4.89Zm2.79-7.93A25 25 0 0 1 64.26 24l2.82 4.88a19.18 19.18 0 0 0-4.35 3.63Zm-4 4.12a11.56 11.56 0 0 1-2.11-2.62 5.2 5.2 0 0 0-1.39-1.7l-.34-.19a5.19 5.19 0 0 0-.66-.35 17 17 0 0 0 1.59-2c1-1.42 1.84-2.65 3.9-3.06a3.09 3.09 0 0 1 2.73.62 1 1 0 0 0 .81.36c.47 0 .73-.48 1-.82v.05c.16.51.46 1.42 1.45 1.54a25.89 25.89 0 0 0-7 8.19Zm-4.32-3.69c.1.07.22.13.36.21a5.66 5.66 0 0 1 1 1.38 11 11 0 0 0 2.48 3c.16.14.17.41.17.87a3.69 3.69 0 0 0 .37 1.88 7.25 7.25 0 0 1 .59 3.5 9.26 9.26 0 0 1-3.24-1c-.25-.34-.16-.59.26-1.17.25-.35.51-.71.37-1.13s-.81-.51-1.22-.48h-.4c.24-1.23-.85-3.8-1.64-4.24-.54-.3-2.4 0-3.52.34a5.61 5.61 0 0 0-.17-1.78 9.85 9.85 0 0 0 3.55-1.76 3.36 3.36 0 0 1 1 .37Zm-1.3 3.62a5.42 5.42 0 0 1 1.15 3.21 1 1 0 0 0 .19.86 1.38 1.38 0 0 0 1.22.29h.08l-.08.1a1.8 1.8 0 0 0-.23 2.31 2 2 0 0 0 .7.49 25 25 0 0 0-.49 4.95 25.3 25.3 0 0 0 .45 4.75 15.18 15.18 0 0 0-2.51.36 21.81 21.81 0 0 1-3.92-2.59l-1-.79a7.11 7.11 0 0 0 2-5.25 8.18 8.18 0 0 0-2.23-5.42 7.53 7.53 0 0 0 1.47-2.69 8.83 8.83 0 0 1 3.18-.59Zm6.75 20.48L59.23 52a19.21 19.21 0 0 0 2.85 5l-4.32 3.62a24.61 24.61 0 0 1-3.5-5.82Zm7.18 4.3A19.13 19.13 0 0 0 67 61.33l-2.82 4.88a24.79 24.79 0 0 1-5.84-4.91ZM58.87 45.1a18.13 18.13 0 1 1 18.19 18.07H77A18.12 18.12 0 0 1 58.87 45.1Zm36.21 6.07a18.38 18.38 0 0 0 1-5.6h4.35a8.62 8.62 0 0 0 1.24 1.25 24.08 24.08 0 0 1-1.27 6.28Zm5 2.83A24.34 24.34 0 0 1 99 56.44a7.43 7.43 0 0 0-2.09.39 6.82 6.82 0 0 0-2.48 1.38 1.23 1.23 0 0 0-.36.56L91.89 57a18.73 18.73 0 0 0 2.86-4.91Zm-4-9.39a19.07 19.07 0 0 0-1-5.6l2.78-1a6.33 6.33 0 0 1-.26 2.63.38.38 0 0 0 0 .15 2 2 0 0 0 .93 1.73 1.68 1.68 0 0 1 .68.89 4.93 4.93 0 0 0 .56 1.21Zm1.77-9.87c-.38.48-.27 1.17-.13 2V37l-3 1.09a19.47 19.47 0 0 0-2.86-4.91l4.32-3.62a24.82 24.82 0 0 1 2.59 3.89c-.34.52-.69 1-.93 1.26Zm-6.56 23 4.32 3.62a24.81 24.81 0 0 1-5.86 4.9l-2.82-4.88a19.14 19.14 0 0 0 4.35-3.67Zm15.89-5.5a49.36 49.36 0 0 1-6.28 4.24h-.9a25.31 25.31 0 0 0 2.62-9.48c.78-.5 2.4-3.13 2.31-4-.14-1.2-1.25-1.38-1.85-1.48H103c.33-.26.74-.58.72-1.06a1 1 0 0 0-.49-.75 5.07 5.07 0 0 1-1.45-3 8.22 8.22 0 0 1 2-1.62 6.8 6.8 0 0 1 3.55-.21 11.39 11.39 0 0 0 1.75.16 10.25 10.25 0 0 0 1.19 1.66c-4.7 3.18-5.71 8.31-3.1 15.52Zm-7-21.11a9 9 0 0 1-.76 1.48 26 26 0 0 0-6.8-7.81c1-.12 1.28-1 1.45-1.54v-.05c.22.34.48.77 1 .82a1 1 0 0 0 .8-.36 3.09 3.09 0 0 1 2.73-.62c2.06.41 2.92 1.64 3.91 3.07a11.9 11.9 0 0 0 2.66 3c-1.73.32-4.68 1.09-5 2Zm-4.57-2.24-4.32 3.62a19.18 19.18 0 0 0-4.35-3.63l2.8-4.88a24.83 24.83 0 0 1 5.85 4.86ZM77 20.44a25.52 25.52 0 0 1 3.81.29l-1 5.55a19.17 19.17 0 0 0-5.66 0l-1-5.55a26.06 26.06 0 0 1 3.85-.29Zm-4.75.46 1 5.54a18.76 18.76 0 0 0-5.32 1.93l-2.82-4.88a24.56 24.56 0 0 1 7.14-2.59ZM36.16 6.39a4.57 4.57 0 0 0 .2 3.84 6.1 6.1 0 0 0-1.45.71l-2.33-2.83a9.29 9.29 0 0 1 3.58-1.72Zm-6.37 4.81a11.87 11.87 0 0 1 2.06-2.47l2.29 2.79a12.05 12.05 0 0 0-2 2.1l-2.67-1.91c.12-.17.22-.35.32-.51Zm-1.55 10 1.16.15a12.6 12.6 0 0 0 .27 3 28.48 28.48 0 0 1-1.43-3.19Zm1.23-.8L28 20.16a10.09 10.09 0 0 1-.18-3L30 18a13.65 13.65 0 0 0-.53 2.36Zm-1.58-4.2A13.58 13.58 0 0 1 29 12.56l2.58 1.85c-.17.26-.33.53-.48.8a15.18 15.18 0 0 0-.82 1.79Zm9 53.57c-.32 0-3.76-.11-4.62-.09A6.49 6.49 0 0 1 32 67.2v-.31c0-.58.09-1.24-.43-1.42a1.71 1.71 0 0 0-1.49.37 9.32 9.32 0 0 1 .1-1.4c0-.28.06-.52.06-.69a10.4 10.4 0 0 0-1.8-5.42c-.59-1-1.09-1.91-.91-2.49a3.72 3.72 0 0 1 1-1.09c.81-.73 1.82-1.64 1.63-2.86a4.45 4.45 0 0 0-.85-1.83c-.74-1.08-1.57-2.31-.75-5.76a.48.48 0 0 0-.41-.54.47.47 0 0 0-.52.32 14.5 14.5 0 0 0-.29 1.6c-1.81 2.12-3.84 3-5.72 2.55a5.81 5.81 0 0 1-3.86-4.61c-.68-3.26.73-6.63 3.77-9a1.71 1.71 0 0 0 .76-1.7 2 2 0 0 0-1.42-1.49 2.77 2.77 0 0 0-2.78.77l-.07.07c.6-3.5 2.22-5.74 4.57-6.32a6 6 0 0 1 6 2.36 5.1 5.1 0 0 1 .27 5.85c-1.22 2.09-3.3 3.46-5.13 4.66-2.61 1.71-5.07 3.32-3.73 6.46a2.74 2.74 0 0 0 2.9 1.59 4.6 4.6 0 0 0 4-3.47 12 12 0 0 1 3.51-6.35c1.88-2 3.45-4.79.92-10.86A12 12 0 0 1 32 15.68c1.45-2.62 3.5-4.25 4.88-4.6a7.55 7.55 0 0 0 .93 1.18.46.46 0 0 0 .66 0 .48.48 0 0 0 0-.68c-.89-1-2.13-2.69-1.56-4.53a2.26 2.26 0 0 0 .23.31 3.49 3.49 0 0 0 2.28 1.24.49.49 0 0 0 .26-.1c3.25-2.45 6.69-2.33 9.63-1.86.06.08.13.21.2.33l.2.35-3.88 3.12a.47.47 0 0 0-.09.65l.87 1.19a.5.5 0 0 0 .5.18l4.12-1a1.8 1.8 0 0 1 .06.32 14 14 0 0 1-2.46 2.09 3.36 3.36 0 0 0-2.65 1l-.09.08c-2.31 2-3.36 2.93-6.27.78a.48.48 0 0 0-.66.14.49.49 0 0 0 .09.63 10.21 10.21 0 0 0 1.44.9 5.13 5.13 0 0 0 2 3.9 7.25 7.25 0 0 1 2.46 4.25.5.5 0 0 0 .23.32.45.45 0 0 0 .39 0c1.8-.56 3.42-2.28 4.86-3.79a10.55 10.55 0 0 1 2.56-2.29 3.62 3.62 0 0 1 1.35-.11 9 9 0 0 0 4.12-.68 1.16 1.16 0 0 1 1 .42 2.7 2.7 0 0 0 1.5.76 7.23 7.23 0 0 1 3.18 1.58 8.84 8.84 0 0 1-2.73 2c-.42 0-.57-.22-.8-.9-.13-.41-.27-.83-.69-1s-.89.35-1.11.7a2.7 2.7 0 0 1-.22.33 4 4 0 0 0-3.62-.89c-2.44.49-3.44 1.93-4.5 3.46a8.81 8.81 0 0 1-5.45 4.15 9.82 9.82 0 0 0-.68-1.38.48.48 0 0 0-.66-.17.48.48 0 0 0-.18.64c2.5 4.27.31 6.73-4.93 10.94-2.44 2-2.47 5-2.5 7.47a18.63 18.63 0 0 1-.1 2.11c-.3 2.17-1 4.37-6.06 7.39a.48.48 0 0 0-.16.66.49.49 0 0 0 .41.23.5.5 0 0 0 .24-.06l.48-.3a31.07 31.07 0 0 0 1.79 7.53.48.48 0 0 0 .18.24 10.62 10.62 0 0 1 2.58 2.24A7.76 7.76 0 0 1 37 69.56v.14Zm1 0a1.35 1.35 0 0 0-.06-.49 8.42 8.42 0 0 0-1.49-2.6 11 11 0 0 0-2.68-2.37c-1.23-3.56-1.8-6.65-1.67-7.69 3.7-2.51 4.72-4.65 5.07-7.17a18.5 18.5 0 0 0 .11-2.23 17 17 0 0 1 .27-3.49c1.37 1.12 2 2.61 1.09 5.72a1.22 1.22 0 0 0 .21 1.06 1.61 1.61 0 0 0 1 .71h.5c1.78.14 4.22.34 5.71 1.46a5.64 5.64 0 0 1 .89 1c.64.87 1.14 1.55 1.75 1.3.28-.11.45-.39.66-.74a3 3 0 0 1 .37-.56 2.12 2.12 0 0 1 .11.21 3.18 3.18 0 0 0 .16.32c.16.27 1.41 2 2.33 2.1h.06a.68.68 0 0 0 .62-.31c.09-.11.28-.33.53-.6a26.24 26.24 0 0 0 2 3.64L49.6 69.67Zm12.83 0 5.35-9.71A25.47 25.47 0 0 0 61 65.13l-4.46 4.63Zm7.08 0 3.89-4a25.42 25.42 0 0 0 8.3 4Zm7.2-3.08 2.82-4.88a18.76 18.76 0 0 0 5.33 2l-1 5.54a24.44 24.44 0 0 1-7.06-2.67Zm12 3.08a24.65 24.65 0 0 1-3.84-.3l1-5.54a19.56 19.56 0 0 0 2.86.21 18.88 18.88 0 0 0 2.81-.21l1 5.55a25.25 25.25 0 0 1-3.79.28Zm3.75-6a18.77 18.77 0 0 0 5.34-1.93l2.82 4.88a24.51 24.51 0 0 1-7.18 2.59Zm3.17 6a25.67 25.67 0 0 0 8.29-4l3.88 4Zm13.49 0L93 65.14a25.27 25.27 0 0 0 3.6-3.49c.71.56 1.33 1.06 1.53 1.24a.71.71 0 0 0 .48.19.54.54 0 0 0 .18 0 1.37 1.37 0 0 0 .54-.3l3.87 7Zm18.57 0h-11.72L100 62a9 9 0 0 0 .76-1.35 2 2 0 0 0 .11-.35l.07-.22a3 3 0 0 1 .46.49c.27.32.48.57.77.64.59.13.93-.32 1.28-.8a8.24 8.24 0 0 1 .86-1c1.43-1.48 5.39-3.49 7.18-3.63a1.18 1.18 0 0 0 .86-.64 2.17 2.17 0 0 0 .21-1.87 6.54 6.54 0 0 1 0-5.17 8.73 8.73 0 0 1 3.88-4.42 17.19 17.19 0 0 1 .28 3.58 18.5 18.5 0 0 0 .11 2.23c.35 2.52 1.37 4.65 5.06 7.16.15 1-.42 4.11-1.66 7.7a11 11 0 0 0-2.68 2.37 8.94 8.94 0 0 0-1.55 2.69 1 1 0 0 0 0 .35Zm6-2.87v.31a7.15 7.15 0 0 1-.36 2.56h-4.71v-.07a8.38 8.38 0 0 1 1.38-2.41 10.62 10.62 0 0 1 2.58-2.24.48.48 0 0 0 .18-.24 31 31 0 0 0 1.78-7.53l.49.3a.5.5 0 0 0 .24.06.44.44 0 0 0 .41-.23.48.48 0 0 0-.16-.66c-5.07-3-5.76-5.22-6.06-7.39a18.63 18.63 0 0 1-.1-2.11c0-2.45-.06-5.5-2.5-7.47-5.24-4.21-7.43-6.67-4.93-10.94a.47.47 0 0 0-.16-.64.48.48 0 0 0-.66.17 9.94 9.94 0 0 0-.68 1.39 8.76 8.76 0 0 1-5.45-4.16c-1.06-1.53-2.06-3-4.5-3.46a4 4 0 0 0-3.67.86 2.7 2.7 0 0 1-.22-.33c-.22-.35-.54-.87-1.11-.7-.42.13-.56.55-.69 1-.23.68-.37.92-.79.9a8.84 8.84 0 0 1-2.74-2 7.23 7.23 0 0 1 3.18-1.58 2.7 2.7 0 0 0 1.5-.76 1.16 1.16 0 0 1 1-.42 9 9 0 0 0 4.12.71 3.62 3.62 0 0 1 1.35.11 11 11 0 0 1 2.57 2.29c1.43 1.51 3.06 3.23 4.85 3.79a.49.49 0 0 0 .53-.17 6 6 0 0 1 3.11-2.25A4.46 4.46 0 0 0 115 20a3.6 3.6 0 0 0 3.36-2.43.48.48 0 0 0-.87-.39c-.95 2.15-2.48 2.12-5.5 1.55a4 4 0 0 0-3 .95 9.29 9.29 0 0 1-2.47-.17 10.66 10.66 0 0 1-.78-2.2c.25-.74 2.86-4.81 6.85-5.82a.44.44 0 0 0 .3-.23 2.59 2.59 0 0 0 0-2.61c1.79.57 2.55 2.52 2.85 3.78a.49.49 0 0 0 .58.35.48.48 0 0 0 .35-.58 10 10 0 0 0-.38-1.21 10.32 10.32 0 0 1 7.22 5c1.14 2.07 1.94 5.53-.79 10.29a13.75 13.75 0 0 0-1.18 2.59 4.64 4.64 0 0 0-.26.9 7.61 7.61 0 0 0 2.33 7.42 12 12 0 0 1 3.51 6.35 4.62 4.62 0 0 0 4 3.47 2.74 2.74 0 0 0 2.9-1.59c1.34-3.14-1.12-4.75-3.73-6.46-1.83-1.2-3.91-2.57-5.12-4.66a5.1 5.1 0 0 1 .26-5.85 6 6 0 0 1 6-2.36c2.35.58 4 2.83 4.58 6.32l-.08-.07a2.77 2.77 0 0 0-2.78-.77 2 2 0 0 0-1.33 1.43 1.71 1.71 0 0 0 .76 1.7c3 2.37 4.44 5.72 3.76 9a5.79 5.79 0 0 1-3.87 4.61c-1.88.48-3.92-.41-5.73-2.52-.06-.48-.15-1-.28-1.6a.49.49 0 0 0-.58-.35.47.47 0 0 0-.36.57c.82 3.45 0 4.68-.75 5.76a4.45 4.45 0 0 0-.85 1.83c-.19 1.22.82 2.13 1.63 2.86a3.47 3.47 0 0 1 1 1.09c.18.58-.32 1.47-.91 2.49a10.4 10.4 0 0 0-1.8 5.42 3.14 3.14 0 0 0 .06.69A9.32 9.32 0 0 1 124 66a1.71 1.71 0 0 0-1.49-.37c-.56.07-.46.73-.46 1.31Zm-6.3-37.19a13.45 13.45 0 0 1-4.43 2.63h-.15a.48.48 0 0 1-.16-.93A12.39 12.39 0 0 0 115 29a.5.5 0 0 1 .68 0 .46.46 0 0 1 0 .66ZM13.21 70.25a.5.5 0 0 1-.48.48H9.44a.47.47 0 0 1-.44-.48.47.47 0 0 1 .46-.48h3.31a.47.47 0 0 1 .48.48ZM113.59 13a.48.48 0 0 1-.09.67l-.17.12c.21.41.51 1.38-1.49 1.12l-.75.56a.47.47 0 0 1-.28.09.48.48 0 0 1-.29-.86l2.4-1.8a.48.48 0 0 1 .67.1Zm4.86 19.63a13.3 13.3 0 0 1-3.69 4.37.48.48 0 1 1-.56-.77 12.33 12.33 0 0 0 3.39-4 .48.48 0 1 1 .87.41ZM19.22 42.9a.49.49 0 0 1-.45.51.47.47 0 0 1-.47-.41c-.15-2.82 1-4.93 4.14-7.75 2-1.81 2-3.25 1.8-3.94a2.28 2.28 0 0 0-1.82-1.6A2.42 2.42 0 0 0 20 30.79a.48.48 0 0 1-.65.13.47.47 0 0 1-.15-.65c1.27-2.16 3.27-3.24 5.35-2.89a4.38 4.38 0 0 1 3.6 3.35c.45 2.22-1 4.55-3.87 6.41a.48.48 0 0 1-.67-.12.47.47 0 0 1 .13-.65c2.56-1.63 3.82-3.6 3.45-5.41a3.39 3.39 0 0 0-2.82-2.6 3.54 3.54 0 0 0-2.28.36 3.38 3.38 0 0 1 .45 0A3.22 3.22 0 0 1 25.13 31c.27.91.35 2.77-2.08 4.93-2.92 2.59-3.96 4.48-3.83 6.97Zm111.59-7c-2.43-2.16-2.35-4-2.08-4.93a3.22 3.22 0 0 1 2.59-2.27h.45a3.6 3.6 0 0 0-2.28-.36 3.42 3.42 0 0 0-2.83 2.6c-.36 1.81.9 3.78 3.46 5.41a.47.47 0 0 1 .15.65.48.48 0 0 1-.66.15c-2.91-1.86-4.32-4.19-3.87-6.41a4.36 4.36 0 0 1 3.6-3.35c2.08-.35 4.08.73 5.35 2.89a.48.48 0 0 1-.8.52 2.43 2.43 0 0 0-2.41-1.13 2.28 2.28 0 0 0-1.82 1.6c-.21.69-.24 2.13 1.79 3.94 3.18 2.82 4.3 4.93 4.15 7.75a.47.47 0 0 1-.47.46.49.49 0 0 1-.45-.51c.1-2.51-.94-4.4-3.86-7Zm-18.57-.77a.38.38 0 0 1-.21 0 .48.48 0 0 1-.21-.91 14.48 14.48 0 0 0 4.4-3.61.48.48 0 1 1 .78.56 15.34 15.34 0 0 1-4.76 4Z" class="cls-2"/></svg>